<svg width="11" height="21" viewBox="0 0 11 21" fill="none" xmlns="http://www.w3.org/2000/svg">
<path d="M9.20456 10.0058L0.712561 1.27877C0.642645 1.20844 0.587371 1.12494 0.549936 1.03311C0.512502 0.941279 0.49365 0.842935 0.494474 0.74377C0.495298 0.644604 0.51578 0.546587 0.554735 0.45539C0.59369 0.364193 0.650344 0.281627 0.721418 0.212469C0.792493 0.143312 0.876577 0.0889362 0.968805 0.0524894C1.06103 0.0160426 1.15958 -0.00175181 1.25873 0.000135901C1.35788 0.00202361 1.45567 0.023556 1.54644 0.0634869C1.63722 0.103418 1.71917 0.160954 1.78756 0.232767L10.7876 9.48277C10.9238 9.62278 11 9.81042 11 10.0058C11 10.2011 10.9238 10.3888 10.7876 10.5288L1.78756 19.7788C1.71917 19.8506 1.63722 19.9081 1.54644 19.948C1.45567 19.988 1.35788 20.0095 1.25873 20.0114C1.15958 20.0133 1.06103 19.9955 0.968805 19.959C0.876577 19.9226 0.792493 19.8682 0.721418 19.7991C0.650344 19.7299 0.59369 19.6473 0.554735 19.5561C0.51578 19.4649 0.495298 19.3669 0.494474 19.2678C0.49365 19.1686 0.512502 19.0703 0.549936 18.9784C0.587371 18.8866 0.642645 18.8031 0.712561 18.7328L9.20456 10.0058Z" fill="#666666"/>
</svg>
