<svg width="12" height="13" viewBox="0 0 12 13" fill="none" xmlns="http://www.w3.org/2000/svg">
<path d="M6.21209 0C5.08731 0.000216232 3.98369 0.319847 3.01894 0.924796C2.05419 1.52975 1.26451 2.39732 0.734133 3.43498C0.203754 4.47263 -0.0474273 5.64145 0.00738262 6.81674C0.0621925 7.99203 0.420938 9.12972 1.04535 10.1084C1.66976 11.0872 2.53642 11.8702 3.55288 12.374C4.56933 12.8778 5.69745 13.0836 6.81691 12.9692C7.93636 12.8549 9.00516 12.4248 9.90928 11.7248C10.8134 11.0249 11.5189 10.0813 11.9506 8.9947C12.1625 8.4617 11.6549 7.9261 11.1441 8.1432C10.2688 8.51414 9.29689 8.55241 8.39738 8.25138C7.49786 7.95034 6.72764 7.32903 6.22063 6.49546C5.71361 5.6619 5.50188 4.66881 5.62223 3.68885C5.74258 2.70889 6.18742 1.80405 6.87939 1.13165L6.92723 1.07965C7.26958 0.67015 6.99744 0.00520001 6.45627 0.00520001H6.29099L6.24874 0.00129998L6.21209 0Z" fill="#9EEE00"/>
</svg>
