<svg width="22" height="22" viewBox="0 0 22 22" fill="none" xmlns="http://www.w3.org/2000/svg">
<path d="M6.1 14.3358V14.8358H6.6H8.3V21.2034C3.81369 20.0059 0.5 15.9076 0.5 11.0276C0.5 5.21531 5.20532 0.5 11 0.5C16.7947 0.5 21.5 5.21531 21.5 11.0276C21.5 16.3019 17.6354 20.6628 12.6 21.4332V14.8358H15.4H15.9V14.3358V11.0276V10.5276H15.4H12.6V8.82205C12.6 8.4905 12.8723 8.2193 13.2 8.2193H15.4H15.9V7.7193V4.41103V3.91103H15.4H12.65C10.2497 3.91103 8.3 5.86739 8.3 8.27068V10.5276H6.6H6.1V11.0276V14.3358Z" fill="#666666" stroke="#666666"/>
</svg>
