<svg width="15" height="30" viewBox="0 0 15 30" fill="none" xmlns="http://www.w3.org/2000/svg">
<path d="M2.56356 15L14.6886 1.91705C14.7884 1.81161 14.8673 1.68644 14.9208 1.54877C14.9742 1.4111 15.0011 1.26367 15 1.11501C14.9988 0.966349 14.9695 0.819408 14.9139 0.682691C14.8583 0.545975 14.7774 0.422197 14.6759 0.31852C14.5744 0.214844 14.4544 0.133327 14.3227 0.0786887C14.191 0.0240501 14.0503 -0.0026262 13.9088 0.000203735C13.7672 0.00303367 13.6276 0.0353137 13.4979 0.0951755C13.3683 0.155037 13.2513 0.241293 13.1537 0.34895L0.303325 14.216C0.108825 14.4259 0 14.7071 0 15C0 15.2929 0.108825 15.5741 0.303325 15.784L13.1537 29.6511C13.2513 29.7587 13.3683 29.845 13.4979 29.9048C13.6276 29.9647 13.7672 29.997 13.9088 29.9998C14.0503 30.0026 14.191 29.976 14.3227 29.9213C14.4544 29.8667 14.5744 29.7852 14.6759 29.6815C14.7774 29.5778 14.8583 29.454 14.9139 29.3173C14.9695 29.1806 14.9988 29.0337 15 28.885C15.0011 28.7363 14.9742 28.5889 14.9208 28.4512C14.8673 28.3136 14.7884 28.1884 14.6886 28.083L2.56356 15Z" fill="white"/>
</svg>
