<svg width="20" height="20" viewBox="0 0 20 20" fill="none" xmlns="http://www.w3.org/2000/svg">
<path d="M5.8 0.5H14.2C17.1239 0.5 19.5 2.87614 19.5 5.8V14.2C19.5 15.6056 18.9416 16.9537 17.9477 17.9477C16.9537 18.9416 15.6056 19.5 14.2 19.5H5.8C2.87614 19.5 0.5 17.1239 0.5 14.2V5.8C0.5 4.39435 1.05839 3.04628 2.05233 2.05233C3.04628 1.05839 4.39435 0.5 5.8 0.5ZM5.6 1.5C4.51261 1.5 3.46976 1.93196 2.70086 2.70086C1.93196 3.46976 1.5 4.51261 1.5 5.6V14.4C1.5 16.6661 3.33386 18.5 5.6 18.5H14.4C15.4874 18.5 16.5302 18.068 17.2991 17.2991C18.068 16.5302 18.5 15.4874 18.5 14.4V5.6C18.5 3.33386 16.6661 1.5 14.4 1.5H5.6ZM15.25 4C15.4489 4 15.6397 4.07902 15.7803 4.21967C15.921 4.36032 16 4.55109 16 4.75C16 4.94891 15.921 5.13968 15.7803 5.28033C15.6397 5.42098 15.4489 5.5 15.25 5.5C15.0511 5.5 14.8603 5.42098 14.7197 5.28033C14.579 5.13968 14.5 4.94891 14.5 4.75C14.5 4.55109 14.579 4.36032 14.7197 4.21967C14.8603 4.07902 15.0511 4 15.25 4ZM10 5.5C11.1935 5.5 12.3381 5.97411 13.182 6.81802C14.0259 7.66193 14.5 8.80653 14.5 10C14.5 11.1935 14.0259 12.3381 13.182 13.182C12.3381 14.0259 11.1935 14.5 10 14.5C8.80653 14.5 7.66193 14.0259 6.81802 13.182C5.97411 12.3381 5.5 11.1935 5.5 10C5.5 8.80653 5.97411 7.66193 6.81802 6.81802C7.66193 5.97411 8.80653 5.5 10 5.5ZM10 6.5C9.07174 6.5 8.1815 6.86875 7.52513 7.52513C6.86875 8.1815 6.5 9.07174 6.5 10C6.5 10.9283 6.86875 11.8185 7.52513 12.4749C8.1815 13.1313 9.07174 13.5 10 13.5C10.9283 13.5 11.8185 13.1313 12.4749 12.4749C13.1313 11.8185 13.5 10.9283 13.5 10C13.5 9.07174 13.1313 8.1815 12.4749 7.52513C11.8185 6.86875 10.9283 6.5 10 6.5Z" fill="#666666" stroke="#666666"/>
</svg>
