<svg width="18" height="18" viewBox="0 0 18 18" fill="none" xmlns="http://www.w3.org/2000/svg">
<path fill-rule="evenodd" clip-rule="evenodd" d="M9.9 0.9C9.9 0.661305 9.80518 0.432387 9.6364 0.263604C9.46761 0.0948211 9.23869 0 9 0C8.7613 0 8.53239 0.0948211 8.3636 0.263604C8.19482 0.432387 8.1 0.661305 8.1 0.9V2.7C8.1 2.93869 8.19482 3.16761 8.3636 3.3364C8.53239 3.50518 8.7613 3.6 9 3.6C9.23869 3.6 9.46761 3.50518 9.6364 3.3364C9.80518 3.16761 9.9 2.93869 9.9 2.7V0.9ZM3.9087 2.6361C3.73819 2.47621 3.51217 2.38893 3.27846 2.39272C3.04474 2.39652 2.82167 2.49109 2.65645 2.65643C2.49122 2.82178 2.39681 3.04491 2.39318 3.27863C2.38955 3.51235 2.47699 3.73831 2.637 3.9087L3.9096 5.1813C4.07934 5.34524 4.30668 5.43596 4.54266 5.43391C4.77864 5.43186 5.00437 5.3372 5.17124 5.17034C5.3381 5.00347 5.43276 4.77774 5.43481 4.54176C5.43686 4.30578 5.34614 4.07844 5.1822 3.9087L3.9087 2.6361ZM15.3639 3.9087C15.5278 3.73896 15.6186 3.51162 15.6165 3.27564C15.6145 3.03966 15.5198 2.81393 15.3529 2.64706C15.1861 2.4802 14.9603 2.38554 14.7244 2.38349C14.4884 2.38144 14.261 2.47216 14.0913 2.6361L12.8187 3.9087C12.6548 4.07844 12.564 4.30578 12.5661 4.54176C12.5681 4.77774 12.6628 5.00347 12.8297 5.17034C12.9965 5.3372 13.2223 5.43186 13.4582 5.43391C13.6942 5.43596 13.9216 5.34524 14.0913 5.1813L15.3639 3.9087ZM9 4.5C7.80653 4.5 6.66193 4.97411 5.81802 5.81802C4.97411 6.66193 4.5 7.80653 4.5 9C4.5 10.1935 4.97411 11.3381 5.81802 12.182C6.66193 13.0259 7.80653 13.5 9 13.5C10.1935 13.5 11.3381 13.0259 12.182 12.182C13.0259 11.3381 13.5 10.1935 13.5 9C13.5 7.80653 13.0259 6.66193 12.182 5.81802C11.3381 4.97411 10.1935 4.5 9 4.5ZM0.9 8.1C0.661305 8.1 0.432387 8.19482 0.263604 8.3636C0.0948211 8.53239 0 8.7613 0 9C0 9.23869 0.0948211 9.46761 0.263604 9.6364C0.432387 9.80518 0.661305 9.9 0.9 9.9H2.7C2.93869 9.9 3.16761 9.80518 3.3364 9.6364C3.50518 9.46761 3.6 9.23869 3.6 9C3.6 8.7613 3.50518 8.53239 3.3364 8.3636C3.16761 8.19482 2.93869 8.1 2.7 8.1H0.9ZM15.3 8.1C15.0613 8.1 14.8324 8.19482 14.6636 8.3636C14.4948 8.53239 14.4 8.7613 14.4 9C14.4 9.23869 14.4948 9.46761 14.6636 9.6364C14.8324 9.80518 15.0613 9.9 15.3 9.9H17.1C17.3387 9.9 17.5676 9.80518 17.7364 9.6364C17.9052 9.46761 18 9.23869 18 9C18 8.7613 17.9052 8.53239 17.7364 8.3636C17.5676 8.19482 17.3387 8.1 17.1 8.1H15.3ZM5.1813 14.0913C5.26726 14.0083 5.33582 13.909 5.38299 13.7992C5.43016 13.6894 5.45499 13.5713 5.45602 13.4518C5.45706 13.3323 5.43429 13.2137 5.38904 13.1031C5.34379 12.9925 5.27696 12.892 5.19246 12.8075C5.10795 12.723 5.00747 12.6562 4.89686 12.611C4.78625 12.5657 4.66774 12.5429 4.54824 12.544C4.42874 12.545 4.31064 12.5698 4.20084 12.617C4.09103 12.6642 3.99172 12.7327 3.9087 12.8187L2.6361 14.0913C2.55014 14.1743 2.48158 14.2736 2.43441 14.3834C2.38724 14.4932 2.36241 14.6113 2.36137 14.7308C2.36034 14.8503 2.38311 14.9689 2.42836 15.0795C2.47361 15.1901 2.54044 15.2906 2.62494 15.3751C2.70945 15.4596 2.80993 15.5264 2.92054 15.5716C3.03115 15.6169 3.14966 15.6397 3.26916 15.6386C3.38866 15.6376 3.50676 15.6128 3.61656 15.5656C3.72637 15.5184 3.82568 15.4499 3.9087 15.3639L5.1813 14.0913ZM14.0913 12.8187C13.9216 12.6548 13.6942 12.564 13.4582 12.5661C13.2223 12.5681 12.9965 12.6628 12.8297 12.8297C12.6628 12.9965 12.5681 13.2223 12.5661 13.4582C12.564 13.6942 12.6548 13.9216 12.8187 14.0913L14.0913 15.3639C14.261 15.5278 14.4884 15.6186 14.7244 15.6165C14.9603 15.6145 15.1861 15.5198 15.3529 15.3529C15.5198 15.1861 15.6145 14.9603 15.6165 14.7244C15.6186 14.4884 15.5278 14.261 15.3639 14.0913L14.0913 12.8187ZM9.9 15.3C9.9 15.0613 9.80518 14.8324 9.6364 14.6636C9.46761 14.4948 9.23869 14.4 9 14.4C8.7613 14.4 8.53239 14.4948 8.3636 14.6636C8.19482 14.8324 8.1 15.0613 8.1 15.3V17.1C8.1 17.3387 8.19482 17.5676 8.3636 17.7364C8.53239 17.9052 8.7613 18 9 18C9.23869 18 9.46761 17.9052 9.6364 17.7364C9.80518 17.5676 9.9 17.3387 9.9 17.1V15.3Z" fill="black"/>
</svg>
