<svg width="16" height="18" viewBox="0 0 16 18" fill="none" xmlns="http://www.w3.org/2000/svg">
<path d="M16 9C16.0006 8.76495 15.9373 8.53375 15.8162 8.32889C15.6951 8.12403 15.5204 7.95248 15.3091 7.83092L2.21091 0.203789C1.99008 0.0750713 1.73715 0.0048027 1.47825 0.000238419C1.21935 -0.00432587 0.963868 0.056982 0.738182 0.177828C0.514645 0.296797 0.328433 0.470295 0.198694 0.680479C0.0689558 0.890665 0.000373507 1.12995 0 1.37373V16.6263C0.000373507 16.87 0.0689558 17.1093 0.198694 17.3195C0.328433 17.5297 0.514645 17.7032 0.738182 17.8222C0.963868 17.943 1.21935 18.0043 1.47825 17.9998C1.73715 17.9952 1.99008 17.9249 2.21091 17.7962L15.3091 10.1691C15.5204 10.0475 15.6951 9.87597 15.8162 9.67111C15.9373 9.46625 16.0006 9.23505 16 9Z" fill="black"/>
</svg>
