<svg width="21" height="17" viewBox="0 0 21 17" fill="none" xmlns="http://www.w3.org/2000/svg">
<path d="M4.16973 12.042C3.7516 11.7305 3.40482 11.3377 3.14838 10.8902C3.57405 10.8918 3.99938 10.8357 4.41252 10.7221L4.37758 9.74961C2.88977 9.45357 1.71352 8.27424 1.41409 6.77988C1.84325 6.91751 2.30449 7 2.79 7H4.48423L3.06148 6.08012C2.04355 5.42198 1.38 4.25985 1.38 2.94C1.38 2.50695 1.45316 2.08861 1.58807 1.70014C3.7688 4.06114 6.84801 5.5961 10.2748 5.76936L10.9329 5.80264L10.7877 5.15987C10.7254 4.88404 10.69 4.59098 10.69 4.29C10.69 2.19462 12.3877 0.5 14.46 0.5C15.5823 0.5 16.558 0.942979 17.2518 1.69825L17.4435 1.90692L17.721 1.8497C18.2163 1.74756 18.7004 1.60805 19.1682 1.43087C18.8953 1.75979 18.5683 2.04108 18.202 2.26168L18.5234 3.18596C18.8311 3.1466 19.1356 3.09263 19.4356 3.02395C19.141 3.31578 18.8251 3.58333 18.4894 3.82313L18.2663 3.98249L18.2807 4.25628C18.2899 4.43109 18.29 4.59818 18.29 4.79C18.29 10.2446 14.1268 16.5 6.58 16.5C4.96717 16.5 3.42881 16.1713 2.02876 15.5781C3.71374 15.3963 5.32094 14.7425 6.66036 13.682L7.7548 12.8155L6.35911 12.7901C5.56907 12.7757 4.80339 12.514 4.16973 12.042ZM1.02 15.63V15.13L1.01879 15.63C1.01919 15.63 1.0196 15.63 1.02 15.63Z" fill="#666666" stroke="#666666"/>
</svg>
