<svg width="23" height="16" viewBox="0 0 23 16" fill="none" xmlns="http://www.w3.org/2000/svg">
<path d="M8.7 11.4286V12.2924L9.44905 11.8621L15.4176 8.43356L16.1723 8L15.4176 7.56644L9.44905 4.13787L8.7 3.70758V4.57143V11.4286ZM22.3174 4.68906L22.3174 4.68906L22.3179 4.69528C22.3973 5.59713 22.431 6.37093 22.431 7.04V7.05795L22.4323 7.07585L22.5 8.01789C22.4991 10.4969 22.3153 12.2774 22.012 13.3869C21.7719 14.2445 21.2381 14.7759 20.3717 15.0151C19.8929 15.1466 18.9582 15.2488 17.4344 15.3176L17.4303 15.3179C15.944 15.3974 14.5844 15.4314 13.3285 15.4314H13.3191L13.3098 15.4318L11.4906 15.5C9.09088 15.4999 7.14932 15.4542 5.66351 15.3694C4.1644 15.2838 3.1647 15.1598 2.62721 15.0148C1.76103 14.7753 1.22753 14.2437 0.987632 13.3857C0.851154 12.8953 0.750676 12.2132 0.682582 11.3109L0.682621 11.3109L0.682073 11.3047C0.602669 10.4029 0.569 9.62907 0.569 8.96V8.94206L0.567713 8.92416L0.500003 7.9821C0.500883 5.50323 0.684664 3.72278 0.987909 2.61329C1.22804 1.7556 1.76179 1.2242 2.62823 0.984918C3.10698 0.853366 4.04174 0.751182 5.56556 0.682348L5.56556 0.682365L5.56972 0.682143C7.05601 0.602608 8.4156 0.568571 9.6715 0.568571H9.68087L9.69024 0.56822L11.5094 0.5C13.9091 0.500119 15.8507 0.545754 17.3365 0.630615C18.8356 0.716237 19.8353 0.840234 20.3728 0.985209C21.2389 1.2247 21.7724 1.75626 22.0123 2.61407C22.1488 3.10453 22.2493 3.78665 22.3174 4.68906Z" fill="#666666" stroke="#666666"/>
</svg>
